<mxfile host="Electron" modified="2023-12-06T07:22:50.299Z" agent="Mozilla/5.0 (Macintosh; Intel Mac OS X 10_15_7) AppleWebKit/537.36 (KHTML, like Gecko) draw.io/21.4.0 Chrome/112.0.5615.204 Electron/24.5.1 Safari/537.36" etag="6iRsT1ao_LrIM-pwnDLN" version="21.4.0" type="device" pages="3">
  <diagram name="Page-1" id="oImRpaND_rMajxHLjbGq">
    <mxGraphModel dx="857" dy="1740" grid="1" gridSize="10" guides="1" tooltips="1" connect="1" arrows="1" fold="1" page="1" pageScale="1" pageWidth="827" pageHeight="1169" math="0" shadow="0">
      <root>
        <mxCell id="0" />
        <mxCell id="1" parent="0" />
        <mxCell id="w0ruI9c6MUyH7BWTlmT--16" value="" style="rounded=0;whiteSpace=wrap;html=1;fillColor=#f5f5f5;strokeColor=#666666;gradientColor=#b3b3b3;" vertex="1" parent="1">
          <mxGeometry x="50" y="200" width="700" height="380" as="geometry" />
        </mxCell>
        <mxCell id="w0ruI9c6MUyH7BWTlmT--7" value="Container" style="text;html=1;strokeColor=none;fillColor=none;align=center;verticalAlign=middle;whiteSpace=wrap;rounded=0;fontStyle=1;fontSize=19;" vertex="1" parent="1">
          <mxGeometry x="95" y="445" width="230" height="40" as="geometry" />
        </mxCell>
        <mxCell id="w0ruI9c6MUyH7BWTlmT--8" value="instructions to start apache" style="rounded=0;whiteSpace=wrap;html=1;fillColor=#dae8fc;strokeColor=#6c8ebf;" vertex="1" parent="1">
          <mxGeometry x="95" y="-40" width="230" height="120" as="geometry" />
        </mxCell>
        <mxCell id="w0ruI9c6MUyH7BWTlmT--10" style="edgeStyle=orthogonalEdgeStyle;rounded=0;orthogonalLoop=1;jettySize=auto;html=1;" edge="1" parent="1" source="w0ruI9c6MUyH7BWTlmT--11" target="w0ruI9c6MUyH7BWTlmT--6">
          <mxGeometry relative="1" as="geometry" />
        </mxCell>
        <mxCell id="w0ruI9c6MUyH7BWTlmT--9" value="httpd" style="text;html=1;strokeColor=none;fillColor=none;align=center;verticalAlign=middle;whiteSpace=wrap;rounded=0;fontStyle=1;fontSize=19;" vertex="1" parent="1">
          <mxGeometry x="95" y="80" width="230" height="40" as="geometry" />
        </mxCell>
        <mxCell id="w0ruI9c6MUyH7BWTlmT--12" value="" style="edgeStyle=orthogonalEdgeStyle;rounded=0;orthogonalLoop=1;jettySize=auto;html=1;" edge="1" parent="1" source="w0ruI9c6MUyH7BWTlmT--9" target="w0ruI9c6MUyH7BWTlmT--11">
          <mxGeometry relative="1" as="geometry">
            <mxPoint x="210" y="210" as="sourcePoint" />
            <mxPoint x="210" y="330" as="targetPoint" />
          </mxGeometry>
        </mxCell>
        <mxCell id="w0ruI9c6MUyH7BWTlmT--11" value="docker container create" style="text;html=1;strokeColor=none;fillColor=none;align=center;verticalAlign=middle;whiteSpace=wrap;rounded=0;fontStyle=1;fontSize=15;" vertex="1" parent="1">
          <mxGeometry x="90" y="250" width="240" height="30" as="geometry" />
        </mxCell>
        <mxCell id="w0ruI9c6MUyH7BWTlmT--13" value="" style="rounded=0;whiteSpace=wrap;html=1;fillColor=#f5f5f5;fontColor=#333333;strokeColor=#666666;" vertex="1" parent="1">
          <mxGeometry x="490" y="300" width="230" height="150" as="geometry" />
        </mxCell>
        <mxCell id="w0ruI9c6MUyH7BWTlmT--14" value="browser" style="text;html=1;strokeColor=none;fillColor=none;align=center;verticalAlign=middle;whiteSpace=wrap;rounded=0;fontStyle=1;fontSize=19;" vertex="1" parent="1">
          <mxGeometry x="490" y="450" width="230" height="40" as="geometry" />
        </mxCell>
        <mxCell id="w0ruI9c6MUyH7BWTlmT--20" style="edgeStyle=orthogonalEdgeStyle;rounded=0;orthogonalLoop=1;jettySize=auto;html=1;entryX=1;entryY=0.5;entryDx=0;entryDy=0;" edge="1" parent="1" source="w0ruI9c6MUyH7BWTlmT--15" target="w0ruI9c6MUyH7BWTlmT--18">
          <mxGeometry relative="1" as="geometry">
            <Array as="points">
              <mxPoint x="610" y="240" />
            </Array>
          </mxGeometry>
        </mxCell>
        <mxCell id="w0ruI9c6MUyH7BWTlmT--15" value="http://localhost:9090" style="text;html=1;strokeColor=#6F0000;fillColor=#a20025;align=center;verticalAlign=middle;whiteSpace=wrap;rounded=0;fontColor=#ffffff;" vertex="1" parent="1">
          <mxGeometry x="489" y="299" width="230" height="30" as="geometry" />
        </mxCell>
        <mxCell id="w0ruI9c6MUyH7BWTlmT--17" value="Linux" style="rounded=0;whiteSpace=wrap;html=1;fillColor=#dae8fc;gradientColor=#7ea6e0;strokeColor=#6c8ebf;fontStyle=1;fontSize=23;" vertex="1" parent="1">
          <mxGeometry x="50" y="520" width="700" height="60" as="geometry" />
        </mxCell>
        <mxCell id="w0ruI9c6MUyH7BWTlmT--21" style="edgeStyle=orthogonalEdgeStyle;rounded=0;orthogonalLoop=1;jettySize=auto;html=1;" edge="1" parent="1" source="w0ruI9c6MUyH7BWTlmT--18" target="w0ruI9c6MUyH7BWTlmT--4">
          <mxGeometry relative="1" as="geometry">
            <Array as="points">
              <mxPoint x="430" y="280" />
              <mxPoint x="295" y="280" />
            </Array>
          </mxGeometry>
        </mxCell>
        <mxCell id="w0ruI9c6MUyH7BWTlmT--18" value="9090" style="rounded=0;whiteSpace=wrap;html=1;fillColor=#ffcd28;gradientColor=#ffa500;strokeColor=#d79b00;fontStyle=1;fontSize=14;" vertex="1" parent="1">
          <mxGeometry x="390" y="220" width="80" height="40" as="geometry" />
        </mxCell>
        <mxCell id="w0ruI9c6MUyH7BWTlmT--22" value="R" style="ellipse;whiteSpace=wrap;html=1;aspect=fixed;" vertex="1" parent="1">
          <mxGeometry x="600" y="360" width="30" height="30" as="geometry" />
        </mxCell>
        <mxCell id="PxCkIdv1lu0-xt17n7Qg-1" value="" style="group" vertex="1" connectable="0" parent="1">
          <mxGeometry x="95" y="300" width="230" height="145" as="geometry" />
        </mxCell>
        <mxCell id="w0ruI9c6MUyH7BWTlmT--6" value="" style="rounded=0;whiteSpace=wrap;html=1;fillColor=#fff2cc;strokeColor=#d6b656;" vertex="1" parent="PxCkIdv1lu0-xt17n7Qg-1">
          <mxGeometry width="230" height="145" as="geometry" />
        </mxCell>
        <mxCell id="w0ruI9c6MUyH7BWTlmT--1" value="apache (httpd)" style="rounded=0;whiteSpace=wrap;html=1;fontStyle=1;fontSize=18;fillColor=#e1d5e7;strokeColor=#9673a6;" vertex="1" parent="PxCkIdv1lu0-xt17n7Qg-1">
          <mxGeometry x="20" y="40" width="180" height="60" as="geometry" />
        </mxCell>
        <mxCell id="w0ruI9c6MUyH7BWTlmT--2" value="index.html" style="text;html=1;strokeColor=none;fillColor=none;align=center;verticalAlign=middle;whiteSpace=wrap;rounded=0;fontStyle=1;fontSize=15;" vertex="1" parent="PxCkIdv1lu0-xt17n7Qg-1">
          <mxGeometry x="20" y="100" width="180" height="30" as="geometry" />
        </mxCell>
        <mxCell id="w0ruI9c6MUyH7BWTlmT--4" value="80" style="ellipse;whiteSpace=wrap;html=1;aspect=fixed;fillColor=#d80073;fontColor=#ffffff;strokeColor=#A50040;" vertex="1" parent="PxCkIdv1lu0-xt17n7Qg-1">
          <mxGeometry x="180" y="20" width="40" height="40" as="geometry" />
        </mxCell>
      </root>
    </mxGraphModel>
  </diagram>
  <diagram id="Tc1TZgO32OBcIQf6EfFf" name="Page-2">
    <mxGraphModel dx="710" dy="1642" grid="1" gridSize="10" guides="1" tooltips="1" connect="1" arrows="1" fold="1" page="1" pageScale="1" pageWidth="827" pageHeight="1169" math="0" shadow="0">
      <root>
        <mxCell id="0" />
        <mxCell id="1" parent="0" />
        <mxCell id="tDAcRY3OibjfDNlPgImy-1" value="" style="rounded=0;whiteSpace=wrap;html=1;fillColor=#f5f5f5;strokeColor=#666666;gradientColor=#b3b3b3;" vertex="1" parent="1">
          <mxGeometry x="50" y="200" width="700" height="380" as="geometry" />
        </mxCell>
        <mxCell id="tDAcRY3OibjfDNlPgImy-2" value="" style="rounded=0;whiteSpace=wrap;html=1;fillColor=#fff2cc;strokeColor=#d6b656;" vertex="1" parent="1">
          <mxGeometry x="95" y="300" width="230" height="145" as="geometry" />
        </mxCell>
        <mxCell id="tDAcRY3OibjfDNlPgImy-21" style="edgeStyle=orthogonalEdgeStyle;rounded=0;orthogonalLoop=1;jettySize=auto;html=1;entryX=0;entryY=0.5;entryDx=0;entryDy=0;entryPerimeter=0;" edge="1" parent="1" source="tDAcRY3OibjfDNlPgImy-3" target="tDAcRY3OibjfDNlPgImy-20">
          <mxGeometry relative="1" as="geometry" />
        </mxCell>
        <mxCell id="tDAcRY3OibjfDNlPgImy-3" value="mysql server" style="rounded=0;whiteSpace=wrap;html=1;fontStyle=1;fontSize=18;fillColor=#e1d5e7;strokeColor=#9673a6;" vertex="1" parent="1">
          <mxGeometry x="115" y="330" width="105" height="80" as="geometry" />
        </mxCell>
        <mxCell id="tDAcRY3OibjfDNlPgImy-5" value="3306" style="ellipse;whiteSpace=wrap;html=1;aspect=fixed;fillColor=#d80073;fontColor=#ffffff;strokeColor=#A50040;" vertex="1" parent="1">
          <mxGeometry x="200" y="310" width="40" height="40" as="geometry" />
        </mxCell>
        <mxCell id="tDAcRY3OibjfDNlPgImy-6" value="Container" style="text;html=1;strokeColor=none;fillColor=none;align=center;verticalAlign=middle;whiteSpace=wrap;rounded=0;fontStyle=1;fontSize=19;" vertex="1" parent="1">
          <mxGeometry x="95" y="445" width="230" height="40" as="geometry" />
        </mxCell>
        <mxCell id="tDAcRY3OibjfDNlPgImy-7" value="instructions to start mysql db" style="rounded=0;whiteSpace=wrap;html=1;fillColor=#dae8fc;strokeColor=#6c8ebf;" vertex="1" parent="1">
          <mxGeometry x="95" y="-40" width="230" height="120" as="geometry" />
        </mxCell>
        <mxCell id="tDAcRY3OibjfDNlPgImy-8" style="edgeStyle=orthogonalEdgeStyle;rounded=0;orthogonalLoop=1;jettySize=auto;html=1;" edge="1" parent="1" source="tDAcRY3OibjfDNlPgImy-11" target="tDAcRY3OibjfDNlPgImy-2">
          <mxGeometry relative="1" as="geometry" />
        </mxCell>
        <mxCell id="tDAcRY3OibjfDNlPgImy-9" value="mysql" style="text;html=1;strokeColor=none;fillColor=none;align=center;verticalAlign=middle;whiteSpace=wrap;rounded=0;fontStyle=1;fontSize=19;" vertex="1" parent="1">
          <mxGeometry x="95" y="80" width="230" height="40" as="geometry" />
        </mxCell>
        <mxCell id="tDAcRY3OibjfDNlPgImy-10" value="" style="edgeStyle=orthogonalEdgeStyle;rounded=0;orthogonalLoop=1;jettySize=auto;html=1;" edge="1" parent="1" source="tDAcRY3OibjfDNlPgImy-9" target="tDAcRY3OibjfDNlPgImy-11">
          <mxGeometry relative="1" as="geometry">
            <mxPoint x="210" y="210" as="sourcePoint" />
            <mxPoint x="210" y="330" as="targetPoint" />
          </mxGeometry>
        </mxCell>
        <mxCell id="tDAcRY3OibjfDNlPgImy-11" value="docker container run" style="text;html=1;strokeColor=none;fillColor=none;align=center;verticalAlign=middle;whiteSpace=wrap;rounded=0;fontStyle=1;fontSize=15;" vertex="1" parent="1">
          <mxGeometry x="90" y="250" width="240" height="30" as="geometry" />
        </mxCell>
        <mxCell id="tDAcRY3OibjfDNlPgImy-16" value="Linux" style="rounded=0;whiteSpace=wrap;html=1;fillColor=#dae8fc;gradientColor=#7ea6e0;strokeColor=#6c8ebf;fontStyle=1;fontSize=23;" vertex="1" parent="1">
          <mxGeometry x="50" y="520" width="700" height="60" as="geometry" />
        </mxCell>
        <mxCell id="tDAcRY3OibjfDNlPgImy-25" style="edgeStyle=orthogonalEdgeStyle;rounded=0;orthogonalLoop=1;jettySize=auto;html=1;" edge="1" parent="1" source="tDAcRY3OibjfDNlPgImy-20" target="tDAcRY3OibjfDNlPgImy-23">
          <mxGeometry relative="1" as="geometry" />
        </mxCell>
        <mxCell id="tDAcRY3OibjfDNlPgImy-20" value="db" style="shape=cylinder3;whiteSpace=wrap;html=1;boundedLbl=1;backgroundOutline=1;size=3.7142857142857224;fillColor=#1ba1e2;fontColor=#ffffff;strokeColor=#006EAF;" vertex="1" parent="1">
          <mxGeometry x="250" y="347.5" width="50" height="45" as="geometry" />
        </mxCell>
        <mxCell id="tDAcRY3OibjfDNlPgImy-22" value="/var/lib/mysql" style="text;html=1;strokeColor=none;fillColor=none;align=center;verticalAlign=middle;whiteSpace=wrap;rounded=0;" vertex="1" parent="1">
          <mxGeometry x="245" y="392.5" width="60" height="30" as="geometry" />
        </mxCell>
        <mxCell id="tDAcRY3OibjfDNlPgImy-23" value="volume" style="shape=cylinder3;whiteSpace=wrap;html=1;boundedLbl=1;backgroundOutline=1;size=9.428571428571502;fillColor=#1ba1e2;fontColor=#ffffff;strokeColor=#006EAF;" vertex="1" parent="1">
          <mxGeometry x="552.5" y="330" width="90" height="80" as="geometry" />
        </mxCell>
        <mxCell id="tDAcRY3OibjfDNlPgImy-24" value="/var/lib/docker/volumes/myvolume" style="text;html=1;strokeColor=none;fillColor=none;align=center;verticalAlign=middle;whiteSpace=wrap;rounded=0;" vertex="1" parent="1">
          <mxGeometry x="500" y="410" width="195" height="30" as="geometry" />
        </mxCell>
        <mxCell id="tDAcRY3OibjfDNlPgImy-26" value="-v myvolume:/var/lib/mysql" style="text;html=1;strokeColor=none;fillColor=none;align=center;verticalAlign=middle;whiteSpace=wrap;rounded=0;fontStyle=1;fontSize=12;" vertex="1" parent="1">
          <mxGeometry x="340" y="340" width="195" height="30" as="geometry" />
        </mxCell>
      </root>
    </mxGraphModel>
  </diagram>
  <diagram id="uKxGj_oNUXdCUOU7_lDE" name="Page-3">
    <mxGraphModel dx="654" dy="436" grid="1" gridSize="10" guides="1" tooltips="1" connect="1" arrows="1" fold="1" page="1" pageScale="1" pageWidth="827" pageHeight="1169" math="0" shadow="0">
      <root>
        <mxCell id="0" />
        <mxCell id="1" parent="0" />
        <mxCell id="RMD7jf2h694y4LBI7DD6-14" value="" style="rounded=0;whiteSpace=wrap;html=1;fillColor=#f5f5f5;gradientColor=#b3b3b3;strokeColor=#666666;" vertex="1" parent="1">
          <mxGeometry x="69" y="290" width="211" height="150" as="geometry" />
        </mxCell>
        <mxCell id="m-2g_LfPKWxYMN16N3ls-1" value="Linux" style="rounded=0;whiteSpace=wrap;html=1;fillColor=#dae8fc;gradientColor=#7ea6e0;strokeColor=#6c8ebf;fontStyle=1" vertex="1" parent="1">
          <mxGeometry x="69" y="420" width="211" height="20" as="geometry" />
        </mxCell>
        <mxCell id="m-2g_LfPKWxYMN16N3ls-2" value="Docker" style="rounded=0;whiteSpace=wrap;html=1;fillColor=#e6d0de;gradientColor=#d5739d;strokeColor=#996185;fontStyle=1;fontColor=#FFFFFF;" vertex="1" parent="1">
          <mxGeometry x="69" y="390" width="211" height="30" as="geometry" />
        </mxCell>
        <mxCell id="m-2g_LfPKWxYMN16N3ls-3" value="Node&lt;br&gt;(worker)" style="text;html=1;strokeColor=none;fillColor=none;align=center;verticalAlign=middle;whiteSpace=wrap;rounded=0;fontStyle=1;fontSize=16;" vertex="1" parent="1">
          <mxGeometry x="69" y="460" width="211" height="20" as="geometry" />
        </mxCell>
        <mxCell id="m-2g_LfPKWxYMN16N3ls-5" value="" style="rounded=0;whiteSpace=wrap;html=1;fillColor=#f5f5f5;gradientColor=#b3b3b3;strokeColor=#666666;" vertex="1" parent="1">
          <mxGeometry x="300" y="290" width="211" height="150" as="geometry" />
        </mxCell>
        <mxCell id="m-2g_LfPKWxYMN16N3ls-6" value="Linux" style="rounded=0;whiteSpace=wrap;html=1;fillColor=#dae8fc;gradientColor=#7ea6e0;strokeColor=#6c8ebf;fontStyle=1" vertex="1" parent="1">
          <mxGeometry x="300" y="420" width="211" height="20" as="geometry" />
        </mxCell>
        <mxCell id="m-2g_LfPKWxYMN16N3ls-7" value="Docker" style="rounded=0;whiteSpace=wrap;html=1;fillColor=#e6d0de;gradientColor=#d5739d;strokeColor=#996185;fontStyle=1;fontColor=#FFFFFF;" vertex="1" parent="1">
          <mxGeometry x="300" y="390" width="211" height="30" as="geometry" />
        </mxCell>
        <mxCell id="m-2g_LfPKWxYMN16N3ls-8" value="Node&lt;br&gt;(manager)" style="text;html=1;strokeColor=none;fillColor=none;align=center;verticalAlign=middle;whiteSpace=wrap;rounded=0;fontStyle=1;fontSize=16;" vertex="1" parent="1">
          <mxGeometry x="300" y="460" width="211" height="20" as="geometry" />
        </mxCell>
        <mxCell id="m-2g_LfPKWxYMN16N3ls-9" value="" style="rounded=0;whiteSpace=wrap;html=1;fillColor=#f5f5f5;gradientColor=#b3b3b3;strokeColor=#666666;" vertex="1" parent="1">
          <mxGeometry x="530" y="290" width="211" height="150" as="geometry" />
        </mxCell>
        <mxCell id="m-2g_LfPKWxYMN16N3ls-10" value="Linux" style="rounded=0;whiteSpace=wrap;html=1;fillColor=#dae8fc;gradientColor=#7ea6e0;strokeColor=#6c8ebf;fontStyle=1" vertex="1" parent="1">
          <mxGeometry x="530" y="420" width="211" height="20" as="geometry" />
        </mxCell>
        <mxCell id="m-2g_LfPKWxYMN16N3ls-11" value="Docker" style="rounded=0;whiteSpace=wrap;html=1;fillColor=#e6d0de;gradientColor=#d5739d;strokeColor=#996185;fontStyle=1;fontColor=#FFFFFF;" vertex="1" parent="1">
          <mxGeometry x="530" y="390" width="211" height="30" as="geometry" />
        </mxCell>
        <mxCell id="m-2g_LfPKWxYMN16N3ls-12" value="Node&lt;br&gt;(worker)" style="text;html=1;strokeColor=none;fillColor=none;align=center;verticalAlign=middle;whiteSpace=wrap;rounded=0;fontStyle=1;fontSize=16;" vertex="1" parent="1">
          <mxGeometry x="530" y="460" width="211" height="20" as="geometry" />
        </mxCell>
        <mxCell id="m-2g_LfPKWxYMN16N3ls-13" value="" style="rounded=0;whiteSpace=wrap;html=1;fillColor=#fff2cc;gradientColor=#ffd966;strokeColor=#d6b656;" vertex="1" parent="1">
          <mxGeometry x="84" y="210" width="643" height="170" as="geometry" />
        </mxCell>
        <mxCell id="m-2g_LfPKWxYMN16N3ls-20" value="" style="group" vertex="1" connectable="0" parent="1">
          <mxGeometry x="100" y="280" width="90" height="40" as="geometry" />
        </mxCell>
        <mxCell id="m-2g_LfPKWxYMN16N3ls-14" value="website" style="rounded=0;whiteSpace=wrap;html=1;fillColor=#60a917;fontColor=#ffffff;strokeColor=#2D7600;" vertex="1" parent="m-2g_LfPKWxYMN16N3ls-20">
          <mxGeometry width="90" height="40" as="geometry" />
        </mxCell>
        <mxCell id="m-2g_LfPKWxYMN16N3ls-15" value="80" style="ellipse;whiteSpace=wrap;html=1;aspect=fixed;fontSize=9;fillColor=#d80073;fontColor=#ffffff;strokeColor=#A50040;" vertex="1" parent="m-2g_LfPKWxYMN16N3ls-20">
          <mxGeometry x="68" y="2" width="20" height="20" as="geometry" />
        </mxCell>
        <mxCell id="m-2g_LfPKWxYMN16N3ls-21" value="" style="group" vertex="1" connectable="0" parent="1">
          <mxGeometry x="100" y="330" width="90" height="40" as="geometry" />
        </mxCell>
        <mxCell id="m-2g_LfPKWxYMN16N3ls-22" value="website" style="rounded=0;whiteSpace=wrap;html=1;fillColor=#60a917;fontColor=#ffffff;strokeColor=#2D7600;" vertex="1" parent="m-2g_LfPKWxYMN16N3ls-21">
          <mxGeometry width="90" height="40" as="geometry" />
        </mxCell>
        <mxCell id="m-2g_LfPKWxYMN16N3ls-23" value="80" style="ellipse;whiteSpace=wrap;html=1;aspect=fixed;fontSize=9;fillColor=#d80073;fontColor=#ffffff;strokeColor=#A50040;" vertex="1" parent="m-2g_LfPKWxYMN16N3ls-21">
          <mxGeometry x="68" y="2" width="20" height="20" as="geometry" />
        </mxCell>
        <mxCell id="m-2g_LfPKWxYMN16N3ls-24" value="" style="group" vertex="1" connectable="0" parent="1">
          <mxGeometry x="365" y="300" width="90" height="40" as="geometry" />
        </mxCell>
        <mxCell id="m-2g_LfPKWxYMN16N3ls-25" value="website" style="rounded=0;whiteSpace=wrap;html=1;fillColor=#60a917;fontColor=#ffffff;strokeColor=#2D7600;" vertex="1" parent="m-2g_LfPKWxYMN16N3ls-24">
          <mxGeometry width="90" height="40" as="geometry" />
        </mxCell>
        <mxCell id="m-2g_LfPKWxYMN16N3ls-26" value="80" style="ellipse;whiteSpace=wrap;html=1;aspect=fixed;fontSize=9;fillColor=#d80073;fontColor=#ffffff;strokeColor=#A50040;" vertex="1" parent="m-2g_LfPKWxYMN16N3ls-24">
          <mxGeometry x="68" y="2" width="20" height="20" as="geometry" />
        </mxCell>
        <mxCell id="m-2g_LfPKWxYMN16N3ls-27" value="" style="group" vertex="1" connectable="0" parent="1">
          <mxGeometry x="630" y="280" width="90" height="40" as="geometry" />
        </mxCell>
        <mxCell id="m-2g_LfPKWxYMN16N3ls-28" value="website" style="rounded=0;whiteSpace=wrap;html=1;fillColor=#60a917;fontColor=#ffffff;strokeColor=#2D7600;" vertex="1" parent="m-2g_LfPKWxYMN16N3ls-27">
          <mxGeometry width="90" height="40" as="geometry" />
        </mxCell>
        <mxCell id="m-2g_LfPKWxYMN16N3ls-29" value="80" style="ellipse;whiteSpace=wrap;html=1;aspect=fixed;fontSize=9;fillColor=#d80073;fontColor=#ffffff;strokeColor=#A50040;" vertex="1" parent="m-2g_LfPKWxYMN16N3ls-27">
          <mxGeometry x="68" y="2" width="20" height="20" as="geometry" />
        </mxCell>
        <mxCell id="m-2g_LfPKWxYMN16N3ls-31" value="" style="group" vertex="1" connectable="0" parent="1">
          <mxGeometry x="630" y="330" width="90" height="40" as="geometry" />
        </mxCell>
        <mxCell id="m-2g_LfPKWxYMN16N3ls-32" value="website" style="rounded=0;whiteSpace=wrap;html=1;fillColor=#60a917;fontColor=#ffffff;strokeColor=#2D7600;" vertex="1" parent="m-2g_LfPKWxYMN16N3ls-31">
          <mxGeometry width="90" height="40" as="geometry" />
        </mxCell>
        <mxCell id="m-2g_LfPKWxYMN16N3ls-33" value="80" style="ellipse;whiteSpace=wrap;html=1;aspect=fixed;fontSize=9;fillColor=#d80073;fontColor=#ffffff;strokeColor=#A50040;" vertex="1" parent="m-2g_LfPKWxYMN16N3ls-31">
          <mxGeometry x="68" y="2" width="20" height="20" as="geometry" />
        </mxCell>
        <mxCell id="m-2g_LfPKWxYMN16N3ls-37" style="edgeStyle=orthogonalEdgeStyle;rounded=0;orthogonalLoop=1;jettySize=auto;html=1;entryX=0.448;entryY=0.074;entryDx=0;entryDy=0;entryPerimeter=0;" edge="1" parent="1" source="m-2g_LfPKWxYMN16N3ls-34" target="m-2g_LfPKWxYMN16N3ls-36">
          <mxGeometry relative="1" as="geometry" />
        </mxCell>
        <mxCell id="m-2g_LfPKWxYMN16N3ls-34" value="user" style="shape=umlActor;verticalLabelPosition=bottom;verticalAlign=top;html=1;outlineConnect=0;" vertex="1" parent="1">
          <mxGeometry x="320" y="40" width="19.5" height="30" as="geometry" />
        </mxCell>
        <mxCell id="m-2g_LfPKWxYMN16N3ls-39" style="edgeStyle=orthogonalEdgeStyle;rounded=0;orthogonalLoop=1;jettySize=auto;html=1;entryX=0.5;entryY=0;entryDx=0;entryDy=0;" edge="1" parent="1" source="m-2g_LfPKWxYMN16N3ls-36" target="m-2g_LfPKWxYMN16N3ls-38">
          <mxGeometry relative="1" as="geometry" />
        </mxCell>
        <mxCell id="m-2g_LfPKWxYMN16N3ls-36" value="internet" style="ellipse;shape=cloud;whiteSpace=wrap;html=1;fillColor=#0050ef;fontColor=#ffffff;strokeColor=#001DBC;" vertex="1" parent="1">
          <mxGeometry x="350" y="110" width="120" height="70" as="geometry" />
        </mxCell>
        <mxCell id="m-2g_LfPKWxYMN16N3ls-40" style="edgeStyle=orthogonalEdgeStyle;rounded=0;orthogonalLoop=1;jettySize=auto;html=1;" edge="1" parent="1" source="m-2g_LfPKWxYMN16N3ls-38" target="m-2g_LfPKWxYMN16N3ls-25">
          <mxGeometry relative="1" as="geometry" />
        </mxCell>
        <mxCell id="m-2g_LfPKWxYMN16N3ls-41" style="edgeStyle=orthogonalEdgeStyle;rounded=0;orthogonalLoop=1;jettySize=auto;html=1;entryX=0.5;entryY=0;entryDx=0;entryDy=0;" edge="1" parent="1" source="m-2g_LfPKWxYMN16N3ls-38" target="m-2g_LfPKWxYMN16N3ls-28">
          <mxGeometry relative="1" as="geometry">
            <Array as="points">
              <mxPoint x="410" y="270" />
              <mxPoint x="675" y="270" />
            </Array>
          </mxGeometry>
        </mxCell>
        <mxCell id="m-2g_LfPKWxYMN16N3ls-42" style="edgeStyle=orthogonalEdgeStyle;rounded=0;orthogonalLoop=1;jettySize=auto;html=1;entryX=0;entryY=0.5;entryDx=0;entryDy=0;" edge="1" parent="1" source="m-2g_LfPKWxYMN16N3ls-38" target="m-2g_LfPKWxYMN16N3ls-32">
          <mxGeometry relative="1" as="geometry">
            <Array as="points">
              <mxPoint x="550" y="350" />
            </Array>
          </mxGeometry>
        </mxCell>
        <mxCell id="m-2g_LfPKWxYMN16N3ls-43" style="edgeStyle=orthogonalEdgeStyle;rounded=0;orthogonalLoop=1;jettySize=auto;html=1;entryX=0.5;entryY=0;entryDx=0;entryDy=0;" edge="1" parent="1" source="m-2g_LfPKWxYMN16N3ls-38" target="m-2g_LfPKWxYMN16N3ls-14">
          <mxGeometry relative="1" as="geometry">
            <Array as="points">
              <mxPoint x="410" y="270" />
              <mxPoint x="145" y="270" />
            </Array>
          </mxGeometry>
        </mxCell>
        <mxCell id="m-2g_LfPKWxYMN16N3ls-44" style="edgeStyle=orthogonalEdgeStyle;rounded=0;orthogonalLoop=1;jettySize=auto;html=1;entryX=1;entryY=0.5;entryDx=0;entryDy=0;" edge="1" parent="1" source="m-2g_LfPKWxYMN16N3ls-38" target="m-2g_LfPKWxYMN16N3ls-22">
          <mxGeometry relative="1" as="geometry">
            <Array as="points">
              <mxPoint x="300" y="350" />
            </Array>
          </mxGeometry>
        </mxCell>
        <mxCell id="m-2g_LfPKWxYMN16N3ls-38" value="Service (Load Balancer) 9090:80" style="rounded=0;whiteSpace=wrap;html=1;fillColor=#1ba1e2;fontColor=#ffffff;strokeColor=#006EAF;fontStyle=1" vertex="1" parent="1">
          <mxGeometry x="100" y="220" width="620" height="40" as="geometry" />
        </mxCell>
        <mxCell id="m-2g_LfPKWxYMN16N3ls-46" style="edgeStyle=orthogonalEdgeStyle;rounded=0;orthogonalLoop=1;jettySize=auto;html=1;entryX=0.625;entryY=0.2;entryDx=0;entryDy=0;entryPerimeter=0;" edge="1" parent="1" source="m-2g_LfPKWxYMN16N3ls-45" target="m-2g_LfPKWxYMN16N3ls-36">
          <mxGeometry relative="1" as="geometry" />
        </mxCell>
        <mxCell id="m-2g_LfPKWxYMN16N3ls-45" value="user" style="shape=umlActor;verticalLabelPosition=bottom;verticalAlign=top;html=1;outlineConnect=0;" vertex="1" parent="1">
          <mxGeometry x="491.5" y="20" width="19.5" height="30" as="geometry" />
        </mxCell>
        <mxCell id="m-2g_LfPKWxYMN16N3ls-56" style="edgeStyle=orthogonalEdgeStyle;rounded=0;orthogonalLoop=1;jettySize=auto;html=1;entryX=0.5;entryY=0;entryDx=0;entryDy=0;" edge="1" parent="1" source="m-2g_LfPKWxYMN16N3ls-53" target="m-2g_LfPKWxYMN16N3ls-54">
          <mxGeometry relative="1" as="geometry" />
        </mxCell>
        <mxCell id="m-2g_LfPKWxYMN16N3ls-57" style="edgeStyle=orthogonalEdgeStyle;rounded=0;orthogonalLoop=1;jettySize=auto;html=1;entryX=0.5;entryY=0;entryDx=0;entryDy=0;" edge="1" parent="1" source="m-2g_LfPKWxYMN16N3ls-53" target="m-2g_LfPKWxYMN16N3ls-55">
          <mxGeometry relative="1" as="geometry" />
        </mxCell>
        <mxCell id="m-2g_LfPKWxYMN16N3ls-53" value="Cluster" style="rounded=0;whiteSpace=wrap;html=1;" vertex="1" parent="1">
          <mxGeometry x="1070" y="100" width="90" height="40" as="geometry" />
        </mxCell>
        <mxCell id="m-2g_LfPKWxYMN16N3ls-54" value="single node" style="rounded=0;whiteSpace=wrap;html=1;" vertex="1" parent="1">
          <mxGeometry x="980" y="200" width="90" height="40" as="geometry" />
        </mxCell>
        <mxCell id="m-2g_LfPKWxYMN16N3ls-61" style="edgeStyle=orthogonalEdgeStyle;rounded=0;orthogonalLoop=1;jettySize=auto;html=1;entryX=0.5;entryY=0;entryDx=0;entryDy=0;" edge="1" parent="1" source="m-2g_LfPKWxYMN16N3ls-55" target="m-2g_LfPKWxYMN16N3ls-59">
          <mxGeometry relative="1" as="geometry" />
        </mxCell>
        <mxCell id="m-2g_LfPKWxYMN16N3ls-62" style="edgeStyle=orthogonalEdgeStyle;rounded=0;orthogonalLoop=1;jettySize=auto;html=1;entryX=0.5;entryY=0;entryDx=0;entryDy=0;" edge="1" parent="1" source="m-2g_LfPKWxYMN16N3ls-55" target="m-2g_LfPKWxYMN16N3ls-60">
          <mxGeometry relative="1" as="geometry" />
        </mxCell>
        <mxCell id="m-2g_LfPKWxYMN16N3ls-55" value="multi-node" style="rounded=0;whiteSpace=wrap;html=1;" vertex="1" parent="1">
          <mxGeometry x="1160" y="200" width="90" height="40" as="geometry" />
        </mxCell>
        <mxCell id="m-2g_LfPKWxYMN16N3ls-58" value="learning&lt;br&gt;development" style="text;html=1;strokeColor=none;fillColor=none;align=center;verticalAlign=middle;whiteSpace=wrap;rounded=0;" vertex="1" parent="1">
          <mxGeometry x="980" y="240" width="90" height="40" as="geometry" />
        </mxCell>
        <mxCell id="m-2g_LfPKWxYMN16N3ls-59" value="single manager" style="rounded=0;whiteSpace=wrap;html=1;" vertex="1" parent="1">
          <mxGeometry x="1050" y="300" width="110" height="40" as="geometry" />
        </mxCell>
        <mxCell id="m-2g_LfPKWxYMN16N3ls-60" value="multi-manager" style="rounded=0;whiteSpace=wrap;html=1;" vertex="1" parent="1">
          <mxGeometry x="1250" y="300" width="110" height="40" as="geometry" />
        </mxCell>
        <mxCell id="m-2g_LfPKWxYMN16N3ls-63" value="HA Cluster" style="text;html=1;strokeColor=none;fillColor=none;align=center;verticalAlign=middle;whiteSpace=wrap;rounded=0;" vertex="1" parent="1">
          <mxGeometry x="1250" y="345" width="110" height="25" as="geometry" />
        </mxCell>
        <mxCell id="m-2g_LfPKWxYMN16N3ls-64" value="Docker Swarm (SwarmKit) - algorithm: Raft&amp;nbsp;" style="text;html=1;strokeColor=none;fillColor=none;align=center;verticalAlign=middle;whiteSpace=wrap;rounded=0;fontStyle=1" vertex="1" parent="1">
          <mxGeometry x="84" y="180" width="646" height="30" as="geometry" />
        </mxCell>
      </root>
    </mxGraphModel>
  </diagram>
</mxfile>
